<?xml version="1.0" standalone="no"?>
<!DOCTYPE svg PUBLIC "-//W3C//DTD SVG 20010904//EN"
 "http://www.w3.org/TR/2001/REC-SVG-20010904/DTD/svg10.dtd">
<svg version="1.0" xmlns="http://www.w3.org/2000/svg"
 width="1080.000000pt" height="1080.000000pt" viewBox="0 0 1080.000000 1080.000000"
 preserveAspectRatio="xMidYMid meet">

<g transform="translate(0.000000,1080.000000) scale(0.100000,-0.100000)"
fill="#000000" stroke="none">
<path d="M6090 7269 c-20 -4 -645 -179 -1390 -389 -864 -243 -1372 -391 -1403
-408 -103 -56 -169 -169 -170 -292 0 -50 13 -111 57 -265 56 -197 58 -206 113
-657 31 -252 54 -460 51 -463 -3 -3 -53 -11 -111 -18 -59 -7 -108 -15 -111
-18 -6 -6 68 -591 76 -605 5 -7 38 -7 114 3 58 8 109 11 112 8 3 -3 16 -88 28
-188 27 -215 46 -277 110 -342 65 -68 151 -105 240 -105 39 0 268 25 510 55
241 30 844 104 1339 165 1079 132 1013 123 1078 153 100 47 181 157 193 263 3
27 -3 126 -15 224 -109 881 -212 1711 -216 1737 -8 43 -30 63 -70 63 -27 0
-1605 -193 -2392 -293 -101 -13 -183 -20 -183 -17 0 4 53 21 118 39 207 58
1777 500 2092 589 274 78 306 90 319 113 13 24 10 42 -44 233 -66 234 -93 290
-170 348 -79 60 -191 87 -275 67z m163 -145 c20 -10 37 -22 37 -27 0 -12 -278
-509 -293 -524 -12 -11 -268 -86 -274 -79 -2 1 61 117 139 257 215 387 216
387 241 392 38 9 112 -1 150 -19z m-801 -221 c-16 -26 -96 -168 -178 -315
l-149 -266 -137 -40 c-76 -22 -138 -36 -138 -32 0 6 347 630 355 638 9 9 270
77 273 71 2 -4 -10 -29 -26 -56z m-842 -187 c0 -2 -46 -87 -103 -188 -57 -100
-138 -244 -180 -319 l-76 -136 -134 -36 c-74 -20 -137 -37 -140 -37 -5 0 67
131 283 515 33 61 66 115 71 120 5 6 65 26 132 46 121 37 147 43 147 35z
m-884 -263 c-13 -32 -228 -413 -237 -419 -5 -3 -39 13 -76 34 -38 22 -89 51
-115 66 -57 32 -61 53 -24 132 37 79 73 100 264 155 191 55 197 56 188 32z
m2660 -639 c215 -167 240 -190 247 -222 4 -20 6 -41 3 -48 -4 -9 -124 -27
-193 -29 -12 0 -593 447 -588 453 4 5 200 30 246 31 44 1 51 -3 285 -185z
m-851 -149 c156 -121 284 -222 285 -225 0 -10 -282 -40 -294 -32 -9 7 -551
428 -565 439 -11 8 15 15 110 27 179 24 143 40 464 -209z m-2009 170 c22 -9
39 -26 48 -46 12 -29 11 -69 -1 -69 -10 0 -133 102 -133 110 0 7 17 15 43 19
4 0 23 -6 43 -14z m1103 -278 c154 -120 283 -222 285 -226 7 -11 -271 -44
-287 -34 -8 4 -141 107 -297 228 l-282 220 113 15 c191 27 150 44 468 -203z
m-1164 166 c68 -56 75 -68 41 -77 -56 -14 -126 44 -126 104 0 31 21 24 85 -27z
m358 -350 c111 -87 195 -159 187 -161 -54 -9 -565 -71 -568 -68 -8 9 -20 131
-14 142 10 17 186 243 190 244 2 0 94 -71 205 -157z m2837 25 c0 -7 12 -107
26 -221 14 -115 24 -211 22 -213 -6 -6 -970 -125 -975 -120 -4 3 -47 324 -55
405 -3 40 5 44 114 56 34 3 234 28 443 55 438 55 425 54 425 38z m-1110 -135
c0 -5 12 -104 26 -221 15 -117 25 -214 23 -216 -5 -5 -973 -125 -977 -121 -6
5 -53 401 -50 424 l3 25 455 57 c479 59 520 64 520 52z m-1110 -139 c0 -3 12
-100 26 -216 14 -116 22 -214 17 -218 -11 -11 -961 -126 -969 -118 -8 8 -56
396 -52 423 3 19 33 24 448 76 437 56 530 65 530 53z m2290 -299 c0 -3 16
-132 35 -286 46 -373 46 -386 -13 -466 -46 -62 -73 -69 -548 -128 -1173 -147
-2301 -285 -2362 -291 -60 -5 -72 -3 -122 23 -95 49 -111 86 -143 348 -37 288
-50 406 -46 410 3 2 151 22 329 44 794 98 1903 236 2330 290 454 57 540 66
540 56z"/>
<path d="M5945 4613 c-154 -20 -281 -37 -283 -38 -2 -2 0 -31 4 -65 l7 -61 51
6 c28 4 62 8 76 10 14 2 50 6 80 10 30 4 66 8 80 10 14 2 88 11 165 20 190 22
178 17 171 78 -3 29 -6 55 -6 60 0 11 -43 7 -345 -30z"/>
<path d="M4230 4400 c-74 -10 -160 -21 -190 -25 -177 -20 -235 -31 -234 -42 1
-7 2 -30 3 -50 1 -21 5 -44 9 -50 6 -10 69 -5 288 22 153 18 293 35 309 37 29
3 30 5 27 48 -5 72 -10 80 -45 79 -18 -1 -93 -9 -167 -19z"/>
<path d="M4320 4186 l-485 -61 3 -55 c2 -30 7 -58 11 -63 4 -4 225 20 491 53
267 33 488 60 492 60 5 0 6 19 2 43 -9 67 -14 87 -22 86 -4 -1 -225 -29 -492
-63z"/>
<path d="M4347 3966 l-489 -61 7 -60 c4 -33 8 -61 10 -63 3 -3 753 87 908 109
l77 11 0 33 c0 42 -11 95 -19 94 -3 -1 -226 -29 -494 -63z"/>
<path d="M7895 5979 c-348 -256 -330 -240 -333 -279 -2 -19 4 -89 13 -155 9
-66 43 -334 75 -595 52 -424 60 -476 78 -490 22 -18 612 -260 634 -260 27 0
58 31 58 58 1 15 -50 436 -112 936 -120 975 -115 946 -171 946 -14 0 -110 -64
-242 -161z m228 -256 c19 -127 108 -875 105 -879 -5 -4 -448 93 -455 100 -3 3
-68 504 -76 584 -2 21 20 35 198 126 110 57 205 104 211 105 6 0 14 -16 17
-36z"/>
<path d="M7118 5715 c-97 -13 -186 -28 -197 -35 -31 -16 -34 -45 -17 -176 9
-65 43 -339 76 -609 33 -269 64 -500 70 -512 5 -12 21 -25 36 -29 15 -4 121 5
237 19 228 28 247 35 247 90 0 17 -34 303 -75 636 -58 465 -79 609 -92 623
-21 23 -60 22 -285 -7z m194 -161 c4 -26 6 -49 5 -50 -1 -1 -23 -5 -50 -9 -47
-7 -47 -7 -54 25 l-6 32 -71 -6 c-39 -4 -79 -9 -88 -12 -12 -4 -18 0 -18 10 0
9 -1 19 -2 24 -1 7 246 42 267 37 5 -1 13 -24 17 -51z m31 -241 c2 -32 4 -59
2 -60 -1 -2 -22 -6 -47 -9 -44 -6 -45 -6 -55 27 -5 19 -14 33 -20 32 -5 -1
-43 -5 -85 -9 -73 -6 -75 -6 -81 17 -3 13 -4 25 -2 27 6 7 178 29 231 31 l52
1 5 -57z m30 -252 c8 -63 2 -71 -54 -71 -34 0 -37 2 -44 36 -5 31 -9 35 -28
31 -12 -3 -52 -9 -89 -12 -68 -7 -68 -7 -68 18 0 24 5 26 58 33 31 3 77 10
102 14 25 5 61 7 80 7 34 -2 35 -3 43 -56z m31 -248 c4 -31 3 -60 -1 -63 -4
-4 -27 -10 -50 -14 -42 -6 -43 -5 -43 21 0 50 -9 54 -91 43 -101 -13 -99 -13
-99 13 0 23 5 25 113 39 177 24 163 27 171 -39z m30 -247 c4 -26 7 -49 5 -51
-2 -2 -25 -6 -51 -10 -46 -7 -47 -7 -50 21 -3 32 -17 35 -130 22 -56 -6 -58
-6 -58 16 0 22 6 24 128 38 70 8 132 14 137 13 6 -1 14 -23 19 -49z"/>
<path d="M2395 4930 c-15 -16 -17 -31 -12 -82 12 -146 119 -995 128 -1016 18
-46 49 -48 140 -7 252 114 447 214 453 232 8 25 -79 735 -94 762 -5 11 -18 22
-27 25 -30 8 -539 106 -555 106 -8 0 -23 -9 -33 -20z m328 -176 c95 -9 175
-19 178 -22 7 -8 52 -353 46 -358 -1 -2 -84 -32 -182 -67 -176 -63 -180 -64
-187 -43 -3 11 -18 120 -32 241 -15 121 -29 230 -31 243 -6 27 -15 27 208 6z"/>
</g>
</svg>
